<?xml version="1.0" encoding="utf-8"?>
<!-- Generator: Adobe Illustrator 24.0.2, SVG Export Plug-In . SVG Version: 6.00 Build 0)  -->
<svg version="1.1" id="Layer_1" xmlns="http://www.w3.org/2000/svg" xmlns:xlink="http://www.w3.org/1999/xlink" x="0px" y="0px"
	 viewBox="0 0 693.89 711.09" enable-background="new 0 0 693.89 711.09" xml:space="preserve">
<rect x="-4253.65" y="-3217.24" fill="none" width="5370.2" height="4287.59"/>
<rect x="-422.66" y="-359.26" fill="none" width="1539.2" height="1429.61"/>
<g>
	<g>
		<path fill="#593399" d="M433.24,631.79c-19.21,0-43.98-8.35-74.09-25.03c-44-24.37-94.65-64.21-142.64-112.19
			c-47.98-47.98-87.82-98.64-112.19-142.64c-28.13-50.8-32.57-86.39-13.19-105.77c19.38-19.38,54.96-14.94,105.77,13.19
			c44,24.37,94.65,64.21,142.64,112.19c47.98,47.98,87.83,98.64,112.19,142.64c28.13,50.8,32.57,86.39,13.19,105.77v0
			C457.02,627.85,446.44,631.79,433.24,631.79z M123.04,265.53c-5.26,0-8.45,1.17-9.91,2.63c-4.37,4.37-6.15,24.36,18.41,68.71
			c23,41.53,60.99,89.73,106.97,135.71c45.99,45.99,94.18,83.98,135.71,106.97c44.35,24.56,64.34,22.78,68.71,18.41
			c4.37-4.37,6.15-24.36-18.41-68.71c-23-41.53-60.99-89.73-106.98-135.71c-45.99-45.98-94.18-83.98-135.71-106.97
			C152.28,270.2,133.54,265.53,123.04,265.53z"/>
	</g>
	<g>
		<path fill="#593399" d="M324.14,659.18c-15.31,0-34.73-6.48-58.1-19.42c-33.66-18.64-72.38-49.08-109-85.71
			c-36.63-36.63-67.07-75.34-85.71-109c-22.24-40.17-25.4-68.66-9.37-84.69c16.02-16.03,44.52-12.87,84.68,9.37
			c33.66,18.64,72.38,49.08,109,85.71c36.63,36.63,67.07,75.34,85.71,109c22.24,40.17,25.4,68.66,9.37,84.69
			C344.03,655.83,335.15,659.18,324.14,659.18z M88.55,381.49c-2.76,0-4.22,0.49-4.6,0.86c-1.25,1.25-3.73,14.55,14.59,47.63
			c17.28,31.19,45.86,67.45,80.49,102.08c34.63,34.63,70.89,63.22,102.08,80.49c33.08,18.32,46.38,15.84,47.63,14.59
			c1.25-1.25,3.73-14.55-14.59-47.63c-17.27-31.19-45.86-67.45-80.49-102.08c-34.63-34.63-70.89-63.22-102.08-80.49
			C108.44,384.12,94.97,381.49,88.55,381.49z"/>
	</g>
	<g>
		<path fill="#593399" d="M229.23,684.2c-36.45,0-92.33-45.19-124.74-77.61c-26.91-26.91-49.3-55.4-63.05-80.22
			c-17.21-31.07-19.26-53.49-6.11-66.65c30.67-30.67,106.75,29.04,146.87,69.15c40.12,40.12,99.83,116.2,69.16,146.87l0,0
			C245.47,681.64,237.89,684.2,229.23,684.2z M57.91,482.3c0.05,4.33,2.53,15.54,14.08,34.8c12.6,20.99,31.95,44.97,54.49,67.51
			c22.54,22.54,46.52,41.9,67.51,54.49c19.25,11.55,30.46,14.03,34.8,14.08c-0.05-4.33-2.53-15.54-14.08-34.8
			c-12.6-20.99-31.95-44.97-54.49-67.51c-22.54-22.54-46.52-41.9-67.51-54.49C73.45,484.83,62.24,482.35,57.91,482.3z"/>
	</g>
	<g>
		
			<ellipse transform="matrix(0.7071 -0.7071 0.7071 0.7071 -429.2331 240.1131)" fill="#593399" cx="75.23" cy="638.19" rx="21.8" ry="75.92"/>
	</g>
	<g>
		
			<ellipse transform="matrix(0.7071 -0.7071 0.7071 0.7071 -471.6923 221.1634)" fill="#593399" cx="31.12" cy="679.96" rx="12.15" ry="42.29"/>
	</g>
	<g>
		<path fill="#593399" d="M450.19,0C311.1,0,206.5,101.26,206.5,249.26s104.6,249.26,243.69,249.26s243.69-101.26,243.69-249.26
			S589.29,0,450.19,0z M450.34,135.88c-58.4,0-105.9,47.51-105.9,105.9h-53.88c0-88.11,71.68-159.79,159.79-159.79V135.88z"/>
	</g>
</g>
</svg>
