<?xml version="1.0" encoding="utf-8"?>
<!-- Generator: Adobe Illustrator 24.0.2, SVG Export Plug-In . SVG Version: 6.00 Build 0)  -->
<svg version="1.1" id="Layer_1" xmlns="http://www.w3.org/2000/svg" xmlns:xlink="http://www.w3.org/1999/xlink" x="0px" y="0px"
	 viewBox="0 0 1496.85 1032.1" enable-background="new 0 0 1496.85 1032.1" xml:space="preserve">
<rect x="-1293.4" y="-2773.85" fill="#44D9D8" width="5370.2" height="4287.59"/>
<rect x="-1293.4" y="-369.25" fill="#593399" width="3830.99" height="1882.99"/>
<g>
	<g>
		<path fill="#FFFFFF" d="M1171.35,531.67c1.84-0.28,3.39,0.27,4.63,1.63c1.24,1.36,1.87,3.15,1.87,5.34c0,0.91-0.06,1.63-0.16,2.16
			l-12.03,55.31l-17.23,18.29l10.08,14.38l-12.84,59.5c-0.44,1.88-1.25,3.42-2.44,4.63c-1.2,1.22-2.55,1.93-4.07,2.16l-132.51,19.91
			l35.61-163.91L1171.35,531.67z M1114.12,587.95l-54.95,8.26l25.69,4.09l-1.79,8.22l27.64-4.15L1114.12,587.95z M1103.55,637.03
			l-27.64,4.15l-3.58,16.43l27.64-4.15L1103.55,637.03z"/>
		<path fill="#FFFFFF" d="M1329.06,507.98c1.84-0.28,3.41,0.26,4.72,1.62s1.95,3.13,1.95,5.33c0,0.39-0.03,0.75-0.08,1.08
			c-0.06,0.33-0.14,0.7-0.24,1.1l-32.03,147.48c-0.43,1.88-1.22,3.41-2.36,4.62c-1.14,1.21-2.47,1.92-3.98,2.15l-123.89,18.61
			c-1.84,0.28-3.41-0.26-4.71-1.62c-1.3-1.36-1.95-3.07-1.95-5.14c0-0.9,0.05-1.62,0.16-2.16l32.03-147.47
			c0.43-1.87,1.25-3.45,2.44-4.73c1.19-1.28,2.55-2.03,4.06-2.26L1329.06,507.98z M1271.99,564.23l-55.12,8.28l25.85,4.06
			l-12.52,57.32l27.48-4.13L1271.99,564.23z"/>
		<path fill="#FFFFFF" d="M1441.73,491.05l55.12-8.28l-16.58,76.15l-27.48,4.13l11.06,1.83l11.54,16.29l-14.15,65.51l-55.12,8.28
			l10.73-49.1l-10.24-14.36l-17.4,18.51l-10.57,49.08l-55.12,8.28l14.31-65.53l17.23-18.48l-10.24-14.36l14.31-65.53l55.12-8.28
			l-10.73,49.3l10.24,14.16l17.23-18.29L1441.73,491.05z"/>
	</g>
	<g>
		<path fill="#FFFFFF" d="M110.69,717.94L0,696.07l236.74-32.49l-10.23,48.94l-104.96,14.41l24.5,4.59l-1.71,8.19l65.73-9.02
			l-10.39,49.74l-19.84-13.77l-42.17,5.79l-20.46,98.08v-0.2l-47.75-15.76l28.06-134.83L110.69,717.94z"/>
		<path fill="#FFFFFF" d="M230.53,823.16c-1.76,0.24-3.23-0.33-4.42-1.72c-1.19-1.39-1.78-3.18-1.78-5.38c0-0.9,0.05-1.56,0.15-1.96
			l31.78-153.19l52.56-7.21l-22.17,106.27l-26.2,3.6l24.5,4.59l26.36-3.62l23.72-114.44l52.56-7.21l-32.71,157.39
			c-0.41,1.87-1.19,3.4-2.33,4.59c-1.14,1.19-2.43,1.89-3.88,2.08L230.53,823.16z"/>
		<path fill="#FFFFFF" d="M437.81,683.72l-39.38,5.4l10.23-49.14l131.16-18l-10.08,49.12l-65.73,9.02l24.65,4.38L466.5,790.77
			l-52.4,7.19L437.81,683.72z"/>
		<path fill="#FFFFFF" d="M533.62,781.56c-1.76,0.24-3.23-0.33-4.42-1.72c-1.19-1.39-1.78-3.18-1.78-5.38c0-0.9,0.05-1.56,0.15-1.96
			l31.78-153.19l52.56-7.21l-22.17,106.27l-26.2,3.6l24.5,4.59l26.36-3.62l23.72-114.44l52.56-7.21l-32.71,157.39
			c-0.41,1.87-1.19,3.4-2.33,4.59c-1.14,1.19-2.43,1.89-3.88,2.08L533.62,781.56z"/>
		<path fill="#FFFFFF" d="M729.9,754.62l-52.4,7.19l33.95-163.38l122.94-16.87c1.76-0.24,3.26,0.33,4.5,1.71
			c1.24,1.38,1.86,3.17,1.86,5.37c0,0.91-0.05,1.63-0.16,2.16l-11.47,55.13l-16.59,17.99l9.77,14.57l-13.64,65.32l-52.4,7.19
			l10.08-48.92l-26.2,3.6L729.9,754.62z M727.42,643.97l24.65,4.38l-1.71,8.19l26.2-3.6l3.41-16.18L727.42,643.97z"/>
		<path fill="#FFFFFF" d="M960.43,722.98L829.12,741l33.95-163.38l131.31-18.02l-10.23,49.14l-104.96,14.41l24.5,4.59l-1.71,8.19
			l65.58-9l-6.67,32.54l-65.73,9.02l-3.41,16.38l78.76-10.81L960.43,722.98z"/>
	</g>
	<g>
		<g>
			<path fill="#FFFFFF" d="M186.2,868.65l236.74-32.49L412.7,885.1l-104.96,14.41l24.5,4.59l-1.55,8.17l70.39-9.66
				c1.76-0.24,3.26,0.3,4.5,1.61c1.24,1.32,1.86,3.08,1.86,5.27c0,0.91-0.05,1.63-0.16,2.16l-25.12,120.45l-45.42-25.39
				l-79.07,10.85l10.23-49.14l78.76-10.81l3.41-16.18l-78.76,10.81l12.4-59.91l13.18-1.81L186.2,868.65z"/>
			<path fill="#FFFFFF" d="M522.47,822.5l52.4-7.19L542.16,972.7c-0.31,1.86-1.03,3.38-2.17,4.57c-1.14,1.19-2.43,1.89-3.88,2.08
				l-126.35,17.34l8.84-42.93l78.76-10.81l3.41-16.38l-70.39,9.66c-1.76,0.24-3.26-0.33-4.5-1.71c-1.24-1.38-1.86-3.17-1.86-5.37
				c0-0.9,0.05-1.56,0.16-1.96l19.53-93.88l52.4-7.19l-10.08,49.12l-26.36,3.62l24.65,4.57l-0.93,3.81l26.36-3.62L522.47,822.5z"/>
			<path fill="#FFFFFF" d="M694.24,951.82c-0.41,1.87-1.19,3.4-2.33,4.59c-1.14,1.19-2.43,1.89-3.88,2.08l-126.35,17.34l10.23-48.94
				l78.76-10.81l3.41-16.38l-70.54,9.68c-1.76,0.24-3.26-0.33-4.5-1.71c-1.24-1.38-1.86-3.17-1.86-5.37c0-0.9,0.05-1.56,0.16-1.96
				l17.05-81.7c0.41-1.87,1.16-3.42,2.25-4.67c1.09-1.25,2.35-1.97,3.8-2.17l126.51-17.36l-10.23,49.14l-104.96,14.41l24.5,4.59
				l-1.71,8.19l70.54-9.68c1.76-0.24,3.23,0.3,4.42,1.62c1.19,1.33,1.78,3.09,1.78,5.29c0,0.91-0.05,1.63-0.15,2.16L694.24,951.82z"
				/>
			<path fill="#FFFFFF" d="M777.18,835.27l-39.38,5.4l10.23-49.14l131.16-18l-10.08,49.12l-65.73,9.02l24.65,4.38l-22.17,106.27
				l-52.4,7.19L777.18,835.27z"/>
			<path fill="#FFFFFF" d="M998.88,915.83l-131.31,18.02l33.95-163.38l131.31-18.02l-10.23,49.14l-104.96,14.41l24.5,4.59
				l-1.71,8.19l65.58-9l-6.67,32.54l-65.73,9.02l-3.41,16.38l78.76-10.81L998.88,915.83z"/>
			<path fill="#FFFFFF" d="M1111.12,900.43l12.87-61.72l-29.15,59.69l-6.51-69.54l-26.2,3.6l24.34,4.42l-14.26,68.9l-52.56,7.21
				l33.95-163.38l46.82-6.43c1.65-0.23,3.07,0.26,4.26,1.45c1.19,1.2,1.88,2.82,2.09,4.86l5.27,55.74l33.02-68.18l52.56-7.21
				l-34.11,163.4L1111.12,900.43z"/>
			<path fill="#FFFFFF" d="M1317.01,866.35c-0.41,1.87-1.19,3.4-2.33,4.59c-1.14,1.19-2.43,1.89-3.88,2.08l-126.35,17.34
				l10.23-48.94l78.76-10.81l3.41-16.38l-70.54,9.68c-1.76,0.24-3.26-0.33-4.5-1.71c-1.24-1.38-1.86-3.17-1.86-5.37
				c0-0.9,0.05-1.56,0.16-1.96l17.05-81.7c0.41-1.87,1.16-3.42,2.25-4.67c1.09-1.25,2.35-1.97,3.8-2.17l126.51-17.36l-10.23,49.14
				l-104.96,14.41l24.5,4.59l-1.71,8.19l70.54-9.68c1.76-0.24,3.23,0.3,4.42,1.62c1.19,1.33,1.78,3.09,1.78,5.29
				c0,0.91-0.05,1.63-0.15,2.16L1317.01,866.35z"/>
		</g>
	</g>
	<g>
		<path fill="#FFFFFF" d="M820.47,507.13c-15.42,0-35.3-6.7-59.47-20.09c-35.32-19.56-75.98-51.54-114.49-90.05
			c-38.51-38.51-70.5-79.18-90.05-114.49c-22.58-40.78-26.14-69.34-10.59-84.9c15.55-15.56,44.12-11.99,84.9,10.59
			c35.32,19.56,75.98,51.54,114.49,90.05c38.52,38.51,70.5,79.18,90.05,114.49c22.58,40.78,26.15,69.34,10.59,84.9v0
			C839.56,503.97,831.06,507.13,820.47,507.13z M571.47,213.14c-4.22,0-6.79,0.94-7.96,2.11c-3.51,3.51-4.94,19.55,14.78,55.15
			c18.46,33.34,48.96,72.02,85.87,108.94c36.91,36.91,75.6,67.41,108.94,85.87c35.6,19.71,51.64,18.29,55.15,14.78
			c3.51-3.51,4.94-19.55-14.78-55.15c-18.46-33.34-48.96-72.02-85.87-108.94c-36.91-36.91-75.6-67.41-108.93-85.87
			C594.94,216.89,579.9,213.14,571.47,213.14z"/>
	</g>
	<g>
		<path fill="#FFFFFF" d="M732.89,529.12c-12.29,0-27.88-5.2-46.64-15.59c-27.02-14.96-58.1-39.4-87.5-68.8
			c-29.4-29.4-53.83-60.47-68.8-87.5c-17.86-32.24-20.39-55.11-7.52-67.98c12.86-12.86,35.73-10.33,67.98,7.52
			c27.02,14.96,58.1,39.4,87.5,68.8c29.4,29.4,53.84,60.47,68.8,87.5c17.86,32.24,20.39,55.11,7.52,67.98
			C748.85,526.43,741.73,529.12,732.89,529.12z M543.78,306.22c-2.22,0-3.39,0.39-3.69,0.69c-1,1-2.99,11.68,11.71,38.23
			c13.87,25.04,36.81,54.14,64.61,81.94c27.8,27.8,56.9,50.75,81.94,64.61c26.55,14.7,37.23,12.71,38.23,11.71
			c1-1,2.99-11.68-11.71-38.23c-13.87-25.04-36.81-54.14-64.61-81.94c-27.8-27.8-56.9-50.74-81.94-64.61
			C559.75,308.33,548.94,306.22,543.78,306.22z"/>
	</g>
	<g>
		<path fill="#FFFFFF" d="M656.7,549.21c-29.26,0-74.11-36.28-100.13-62.29c-21.6-21.6-39.58-44.47-50.61-64.4
			c-13.81-24.94-15.46-42.94-4.9-53.5c24.62-24.62,85.69,23.31,117.89,55.51c32.2,32.2,80.13,93.27,55.51,117.89l0,0
			C669.74,547.15,663.66,549.21,656.7,549.21z M519.19,387.14c0.04,3.48,2.03,12.48,11.3,27.93c10.11,16.85,25.64,36.1,43.74,54.19
			c18.1,18.1,37.34,33.63,54.19,43.74c15.45,9.27,24.45,11.26,27.93,11.3c-0.04-3.48-2.03-12.48-11.3-27.93
			c-10.11-16.85-25.64-36.1-43.74-54.19c-18.1-18.1-37.34-33.63-54.19-43.74C531.66,389.17,522.66,387.18,519.19,387.14z"/>
	</g>
	<g>
		
			<ellipse transform="matrix(0.7071 -0.7071 0.7071 0.7071 -206.0903 526.9905)" fill="#FFFFFF" cx="533.09" cy="512.27" rx="17.5" ry="60.94"/>
	</g>
	<g>
		
			<ellipse transform="matrix(0.7071 -0.7071 0.7071 0.7071 -240.172 511.7797)" fill="#FFFFFF" cx="497.69" cy="545.8" rx="9.75" ry="33.95"/>
	</g>
	<g>
		<path fill="#FFFFFF" d="M834.07,0C722.42,0,638.46,81.28,638.46,200.08s83.96,200.08,195.61,200.08s195.61-81.28,195.61-200.08
			S945.72,0,834.07,0z M834.19,109.07c-46.88,0-85.01,38.13-85.01,85.01h-43.25c0-70.72,57.54-128.26,128.26-128.26V109.07z"/>
	</g>
</g>
</svg>
