<?xml version="1.0" encoding="utf-8"?>
<!-- Generator: Adobe Illustrator 24.0.2, SVG Export Plug-In . SVG Version: 6.00 Build 0)  -->
<svg version="1.1" id="Layer_1" xmlns="http://www.w3.org/2000/svg" xmlns:xlink="http://www.w3.org/1999/xlink" x="0px" y="0px"
	 viewBox="0 0 2021.33 1393.74" enable-background="new 0 0 2021.33 1393.74" xml:space="preserve">
<rect x="-1840.47" y="-616.18" opacity="0.76" fill="none" width="5702.28" height="2823.11"/>
<g>
	<g>
		<path fill="#FFFFFF" d="M1581.79,717.96c2.49-0.37,4.57,0.36,6.26,2.2c1.68,1.84,2.52,4.25,2.52,7.21c0,1.22-0.08,2.2-0.22,2.91
			l-16.25,74.68l-23.27,24.7l13.61,19.42l-17.34,80.35c-0.59,2.53-1.68,4.62-3.29,6.25c-1.61,1.64-3.44,2.61-5.49,2.92
			l-178.94,26.88l48.08-221.34L1581.79,717.96z M1504.5,793.96l-74.21,11.15l34.69,5.52l-2.41,11.1l37.32-5.61L1504.5,793.96z
			 M1490.23,860.24l-37.32,5.61l-4.83,22.19l37.32-5.61L1490.23,860.24z"/>
		<path fill="#FFFFFF" d="M1794.75,685.97c2.49-0.37,4.61,0.35,6.37,2.18c1.76,1.83,2.63,4.23,2.63,7.2c0,0.52-0.04,1.01-0.11,1.45
			c-0.07,0.45-0.19,0.95-0.33,1.49l-43.25,199.15c-0.59,2.53-1.65,4.61-3.18,6.24c-1.54,1.63-3.33,2.6-5.38,2.9l-167.3,25.13
			c-2.49,0.37-4.61-0.36-6.37-2.18c-1.76-1.83-2.63-4.14-2.63-6.93c0-1.22,0.07-2.19,0.22-2.91l43.25-199.15
			c0.58-2.53,1.68-4.66,3.29-6.38c1.61-1.72,3.44-2.74,5.49-3.05L1794.75,685.97z M1717.69,761.94l-74.43,11.18l34.91,5.49
			l-16.91,77.4l37.1-5.57L1717.69,761.94z"/>
		<path fill="#FFFFFF" d="M1946.91,663.11l74.43-11.18l-22.39,102.83l-37.11,5.57l14.93,2.47l15.59,22l-19.1,88.46l-74.43,11.18
			l14.49-66.31l-13.83-19.39l-23.49,24.99l-14.27,66.27l-74.43,11.18l19.32-88.5l23.27-24.96l-13.83-19.39l19.32-88.5l74.43-11.18
			l-14.49,66.57l13.83,19.12l23.27-24.7L1946.91,663.11z"/>
	</g>
	<g>
		<path fill="#FFFFFF" d="M149.48,969.5L0,939.97l319.69-43.88l-13.82,66.09l-141.73,19.45l33.08,6.2l-2.3,11.06l88.77-12.18
			l-14.03,67.17l-26.8-18.59l-56.95,7.82l-27.64,132.45v-0.26l-64.48-21.28l37.89-182.07L149.48,969.5z"/>
		<path fill="#FFFFFF" d="M311.31,1111.58c-2.37,0.33-4.36-0.45-5.97-2.33c-1.61-1.88-2.41-4.3-2.41-7.27
			c0-1.22,0.07-2.11,0.21-2.65l42.92-206.86l70.97-9.74l-29.94,143.51l-35.38,4.86l33.08,6.2l35.59-4.88l32.03-154.54l70.97-9.74
			l-44.17,212.54c-0.56,2.52-1.61,4.59-3.14,6.2c-1.54,1.61-3.28,2.55-5.23,2.81L311.31,1111.58z"/>
		<path fill="#FFFFFF" d="M591.22,923.29l-53.18,7.3l13.82-66.35l177.12-24.31l-13.61,66.33l-88.77,12.18l33.29,5.91l-29.94,143.51
			l-70.76,9.71L591.22,923.29z"/>
		<path fill="#FFFFFF" d="M720.6,1055.41c-2.37,0.33-4.36-0.45-5.97-2.33c-1.61-1.88-2.41-4.3-2.41-7.27c0-1.22,0.07-2.11,0.21-2.65
			l42.92-206.86l70.97-9.74l-29.94,143.51l-35.38,4.86l33.08,6.2l35.59-4.88l32.03-154.54l70.97-9.74L888.5,1024.5
			c-0.56,2.52-1.61,4.59-3.14,6.2c-1.54,1.61-3.28,2.55-5.23,2.81L720.6,1055.41z"/>
		<path fill="#FFFFFF" d="M985.64,1019.03l-70.76,9.71l45.85-220.63l166.02-22.79c2.37-0.33,4.4,0.44,6.07,2.31
			c1.68,1.87,2.51,4.29,2.51,7.25c0,1.22-0.07,2.2-0.21,2.91l-15.49,74.44l-22.4,24.3l13.19,19.68l-18.42,88.21l-70.76,9.71
			l13.61-66.06l-35.38,4.86L985.64,1019.03z M982.3,869.62l33.29,5.91l-2.3,11.06l35.38-4.86l4.61-21.85L982.3,869.62z"/>
		<path fill="#FFFFFF" d="M1296.96,976.31l-177.33,24.34l45.85-220.63l177.33-24.34l-13.82,66.35l-141.73,19.45l33.08,6.2
			l-2.3,11.06l88.56-12.15l-9,43.95l-88.77,12.18l-4.61,22.12l106.35-14.6L1296.96,976.31z"/>
	</g>
	<g>
		<g>
			<path fill="#FFFFFF" d="M251.44,1173.02l319.69-43.88l-13.82,66.09l-141.73,19.45l33.08,6.2l-2.09,11.03l95.05-13.05
				c2.37-0.33,4.4,0.4,6.07,2.18c1.68,1.78,2.51,4.15,2.51,7.12c0,1.22-0.07,2.2-0.21,2.91l-33.92,162.66l-61.34-34.29
				l-106.77,14.65l13.82-66.35l106.35-14.6l4.61-21.86l-106.35,14.6l16.75-80.91l17.8-2.44L251.44,1173.02z"/>
			<path fill="#FFFFFF" d="M705.53,1110.7l70.76-9.71l-44.17,212.54c-0.42,2.51-1.4,4.56-2.93,6.17c-1.54,1.61-3.28,2.55-5.23,2.81
				l-170.63,23.42l11.93-57.97l106.35-14.6l4.61-22.12l-95.05,13.04c-2.37,0.33-4.4-0.44-6.07-2.31c-1.68-1.87-2.51-4.28-2.51-7.25
				c0-1.22,0.07-2.11,0.21-2.65l26.38-126.77l70.76-9.71l-13.61,66.33l-35.59,4.88l33.29,6.17l-1.26,5.15l35.59-4.88L705.53,1110.7z
				"/>
			<path fill="#FFFFFF" d="M937.5,1285.33c-0.56,2.52-1.61,4.59-3.14,6.2c-1.54,1.61-3.28,2.55-5.23,2.81l-170.63,23.42l13.82-66.09
				l106.35-14.6l4.61-22.12l-95.26,13.07c-2.37,0.33-4.4-0.44-6.07-2.31c-1.68-1.87-2.51-4.28-2.51-7.25c0-1.22,0.07-2.11,0.21-2.65
				l23.03-110.33c0.56-2.52,1.57-4.63,3.04-6.31c1.47-1.68,3.17-2.66,5.13-2.93l170.83-23.45l-13.82,66.35l-141.73,19.45l33.08,6.2
				l-2.3,11.06l95.26-13.07c2.37-0.33,4.36,0.41,5.97,2.19c1.6,1.79,2.41,4.17,2.41,7.14c0,1.22-0.07,2.2-0.21,2.91L937.5,1285.33z"
				/>
			<path fill="#FFFFFF" d="M1049.5,1127.94l-53.18,7.3l13.82-66.35l177.12-24.31l-13.61,66.33l-88.77,12.18l33.29,5.91
				l-29.94,143.51l-70.76,9.71L1049.5,1127.94z"/>
			<path fill="#FFFFFF" d="M1348.88,1236.73l-177.33,24.34l45.85-220.63l177.33-24.34l-13.82,66.35l-141.73,19.45l33.08,6.2
				l-2.3,11.06l88.56-12.15l-9,43.95l-88.77,12.18l-4.61,22.12l106.35-14.6L1348.88,1236.73z"/>
			<path fill="#FFFFFF" d="M1500.45,1215.93l17.38-83.35l-39.36,80.6l-8.79-93.91l-35.38,4.86l32.87,5.97l-19.26,93.04l-70.97,9.74
				l45.85-220.63l63.23-8.68c2.23-0.31,4.15,0.35,5.76,1.96c1.6,1.61,2.54,3.8,2.83,6.56l7.12,75.27l44.59-92.06l70.97-9.74
				l-46.06,220.66L1500.45,1215.93z"/>
			<path fill="#FFFFFF" d="M1778.48,1169.91c-0.56,2.53-1.61,4.59-3.14,6.2c-1.54,1.61-3.28,2.55-5.23,2.81l-170.63,23.42
				l13.82-66.09l106.35-14.6l4.61-22.12l-95.26,13.07c-2.37,0.33-4.4-0.44-6.07-2.31c-1.68-1.87-2.51-4.28-2.51-7.25
				c0-1.22,0.07-2.11,0.21-2.65l23.03-110.33c0.56-2.52,1.57-4.63,3.04-6.31c1.47-1.68,3.17-2.66,5.13-2.93l170.83-23.45
				l-13.82,66.35l-141.73,19.45l33.08,6.2l-2.3,11.06l95.26-13.07c2.37-0.33,4.36,0.41,5.97,2.19c1.6,1.79,2.41,4.17,2.41,7.14
				c0,1.22-0.07,2.2-0.21,2.91L1778.48,1169.91z"/>
		</g>
	</g>
	<g>
		<path fill="#FFFFFF" d="M1107.95,684.83c-20.83,0-47.67-9.05-80.31-27.13c-47.69-26.41-102.6-69.6-154.61-121.61
			c-52.01-52.01-95.2-106.92-121.61-154.61c-30.49-55.07-35.31-93.64-14.3-114.65c21.01-21.01,59.58-16.19,114.65,14.3
			c47.69,26.41,102.6,69.6,154.61,121.61c52.01,52.01,95.2,106.92,121.61,154.61c30.5,55.07,35.31,93.64,14.3,114.65v0
			C1133.73,680.56,1122.26,684.83,1107.95,684.83z M771.7,287.82c-5.7,0-9.16,1.27-10.75,2.85c-4.74,4.74-6.67,26.41,19.95,74.48
			c24.93,45.02,66.11,97.26,115.95,147.11c49.85,49.85,102.09,91.03,147.11,115.95c48.07,26.62,69.74,24.69,74.48,19.95
			c4.74-4.74,6.67-26.4-19.95-74.48c-24.93-45.02-66.11-97.26-115.96-147.11c-49.85-49.85-102.09-91.03-147.1-115.95
			C803.4,292.89,783.09,287.82,771.7,287.82z"/>
	</g>
	<g>
		<path fill="#FFFFFF" d="M989.69,714.52c-16.6,0-37.64-7.02-62.98-21.05c-36.49-20.21-78.45-53.2-118.15-92.91
			c-39.7-39.7-72.7-81.66-92.91-118.15c-24.11-43.54-27.53-74.43-10.16-91.79c17.37-17.37,48.25-13.95,91.79,10.16
			c36.49,20.21,78.45,53.2,118.16,92.91c39.7,39.7,72.7,81.66,92.91,118.16c24.11,43.54,27.53,74.43,10.16,91.79
			C1011.25,710.89,1001.62,714.52,989.69,714.52z M734.32,413.51c-2.99,0-4.58,0.53-4.99,0.93c-1.35,1.35-4.04,15.77,15.81,51.63
			c18.73,33.81,49.71,73.11,87.25,110.65c37.54,37.54,76.84,68.53,110.65,87.25c35.86,19.86,50.27,17.17,51.63,15.81
			c1.35-1.35,4.04-15.77-15.81-51.63c-18.73-33.81-49.71-73.11-87.25-110.65c-37.54-37.54-76.84-68.53-110.65-87.25
			C755.88,416.37,741.28,413.51,734.32,413.51z"/>
	</g>
	<g>
		<path fill="#FFFFFF" d="M886.81,741.64c-39.51,0-100.08-48.99-135.21-84.12c-29.17-29.17-53.44-60.05-68.34-86.96
			c-18.65-33.68-20.88-57.98-6.62-72.24c33.25-33.25,115.71,31.47,159.2,74.96c43.49,43.49,108.21,125.95,74.96,159.2l0,0
			C904.41,738.87,896.2,741.64,886.81,741.64z M701.1,522.79c0.05,4.7,2.74,16.85,15.27,37.72c13.65,22.75,34.63,48.74,59.07,73.18
			c24.44,24.44,50.43,45.41,73.18,59.07c20.87,12.52,33.02,15.21,37.72,15.26c-0.05-4.7-2.74-16.85-15.26-37.72
			c-13.65-22.75-34.63-48.74-59.07-73.18c-24.44-24.44-50.43-45.41-73.18-59.07C717.95,525.53,705.8,522.84,701.1,522.79z"/>
	</g>
	<g>
		
			<ellipse transform="matrix(0.7071 -0.7071 0.7071 0.7071 -278.3027 711.6437)" fill="#FFFFFF" cx="719.88" cy="691.76" rx="23.63" ry="82.29"/>
	</g>
	<g>
		
			<ellipse transform="matrix(0.7071 -0.7071 0.7071 0.7071 -324.3264 691.1032)" fill="#FFFFFF" cx="672.07" cy="737.05" rx="13.17" ry="45.84"/>
	</g>
	<g>
		<path fill="#FFFFFF" d="M1126.32,0C975.55,0,862.17,109.76,862.17,270.18s113.38,270.18,264.15,270.18
			s264.15-109.76,264.15-270.18S1277.1,0,1126.32,0z M1126.49,147.28c-63.3,0-114.79,51.49-114.79,114.79h-58.41
			c0-95.5,77.7-173.2,173.2-173.2V147.28z"/>
	</g>
</g>
</svg>
