<?xml version="1.0" encoding="utf-8"?>
<!-- Generator: Adobe Illustrator 24.0.2, SVG Export Plug-In . SVG Version: 6.00 Build 0)  -->
<svg version="1.1" id="Layer_1" xmlns="http://www.w3.org/2000/svg" xmlns:xlink="http://www.w3.org/1999/xlink" x="0px" y="0px"
	 viewBox="0 0 2034.01 1392.25" enable-background="new 0 0 2034.01 1392.25" xml:space="preserve">
<rect x="-983.72" y="-452.45" fill="#44D9D8" width="5370.2" height="4287.59"/>
<g>
	<g>
		<g>
			<path d="M1594.93,716.93c2.48-0.37,4.57,0.36,6.25,2.2c1.68,1.84,2.52,4.24,2.52,7.21c0,1.22-0.08,2.19-0.22,2.91l-16.23,74.6
				l-23.25,24.67l13.6,19.4l-17.33,80.26c-0.59,2.53-1.68,4.61-3.29,6.25c-1.61,1.64-3.44,2.61-5.48,2.92l-178.74,26.85l48.03-221.1
				L1594.93,716.93z M1517.73,792.85l-74.13,11.14l34.65,5.51l-2.41,11.08l37.28-5.6L1517.73,792.85z M1503.47,859.05l-37.28,5.6
				l-4.82,22.16l37.28-5.6L1503.47,859.05z"/>
			<path d="M1807.67,684.97c2.48-0.37,4.61,0.35,6.36,2.18s2.63,4.23,2.63,7.19c0,0.52-0.04,1.01-0.11,1.45
				c-0.07,0.45-0.19,0.94-0.33,1.49l-43.21,198.94c-0.59,2.53-1.64,4.61-3.18,6.23c-1.54,1.63-3.33,2.59-5.37,2.9l-167.12,25.11
				c-2.49,0.37-4.61-0.35-6.36-2.18c-1.75-1.83-2.63-4.14-2.63-6.93c0-1.22,0.07-2.19,0.22-2.91l43.21-198.93
				c0.58-2.53,1.68-4.65,3.29-6.38c1.61-1.72,3.43-2.74,5.48-3.05L1807.67,684.97z M1730.69,760.85l-74.35,11.17l34.87,5.48
				l-16.89,77.32l37.06-5.57L1730.69,760.85z"/>
			<path d="M1959.66,662.14l74.35-11.17l-22.37,102.72l-37.07,5.57l14.91,2.47l15.57,21.98l-19.08,88.37l-74.35,11.17L1926.1,817
				l-13.82-19.37l-23.47,24.97l-14.26,66.2l-74.35,11.17l19.3-88.4l23.25-24.93l-13.82-19.37l19.3-88.4l74.35-11.17l-14.47,66.5
				l13.82,19.1l23.25-24.67L1959.66,662.14z"/>
		</g>
		<g>
			<path d="M149.32,968.46L0,938.96l319.34-43.83l-13.8,66.02l-141.58,19.43l33.04,6.2l-2.3,11.05l88.67-12.17l-14.01,67.1
				l-26.77-18.57l-56.88,7.81L158.1,1174.3v-0.26l-64.41-21.26l37.85-181.87L149.32,968.46z"/>
			<path d="M310.98,1110.39c-2.37,0.33-4.36-0.45-5.96-2.32c-1.6-1.87-2.4-4.29-2.4-7.26c0-1.22,0.07-2.1,0.21-2.65l42.87-206.64
				l70.9-9.73l-29.91,143.35l-35.34,4.85l33.04,6.2l35.55-4.88l32-154.37l70.9-9.73l-44.13,212.31c-0.56,2.52-1.6,4.58-3.14,6.19
				c-1.54,1.61-3.28,2.54-5.23,2.81L310.98,1110.39z"/>
			<path d="M590.58,922.3l-53.12,7.29l13.8-66.28l176.93-24.28l-13.59,66.25l-88.67,12.17l33.25,5.91l-29.91,143.35l-70.69,9.7
				L590.58,922.3z"/>
			<path d="M719.83,1054.27c-2.37,0.33-4.36-0.45-5.96-2.32c-1.6-1.87-2.4-4.29-2.4-7.26c0-1.22,0.07-2.1,0.21-2.65l42.87-206.64
				l70.9-9.73l-29.91,143.35l-35.34,4.85l33.04,6.2l35.55-4.88l32-154.37l70.9-9.73l-44.13,212.31c-0.56,2.52-1.6,4.58-3.14,6.19
				c-1.54,1.61-3.28,2.54-5.23,2.81L719.83,1054.27z"/>
			<path d="M984.58,1017.94l-70.69,9.7l45.8-220.39l165.84-22.76c2.37-0.33,4.39,0.44,6.06,2.31c1.67,1.86,2.51,4.28,2.51,7.25
				c0,1.22-0.07,2.19-0.21,2.91l-15.48,74.36l-22.38,24.27l13.18,19.65l-18.4,88.12l-70.69,9.7l13.59-65.99l-35.34,4.85
				L984.58,1017.94z M981.24,868.68l33.25,5.91l-2.3,11.05l35.34-4.85l4.6-21.83L981.24,868.68z"/>
			<path d="M1295.56,975.26l-177.13,24.31l45.8-220.39l177.13-24.31l-13.8,66.28l-141.58,19.43l33.04,6.2l-2.3,11.05l88.46-12.14
				l-8.99,43.9l-88.67,12.17l-4.6,22.09l106.24-14.58L1295.56,975.26z"/>
		</g>
		<g>
			<g>
				<path d="M251.17,1171.76l319.34-43.83l-13.8,66.02l-141.58,19.43l33.04,6.2l-2.09,11.02l94.95-13.03
					c2.37-0.33,4.39,0.4,6.06,2.18c1.67,1.78,2.51,4.15,2.51,7.11c0,1.22-0.07,2.19-0.21,2.91l-33.88,162.48l-61.28-34.25
					l-106.66,14.64l13.8-66.28l106.24-14.58l4.6-21.83l-106.24,14.58l16.73-80.82l17.78-2.44L251.17,1171.76z"/>
				<path d="M704.78,1109.5l70.69-9.7l-44.13,212.31c-0.42,2.5-1.4,4.55-2.93,6.16c-1.54,1.61-3.28,2.54-5.23,2.81l-170.44,23.39
					l11.92-57.91l106.24-14.58l4.6-22.09l-94.95,13.03c-2.37,0.33-4.39-0.44-6.06-2.31c-1.67-1.86-2.51-4.28-2.51-7.25
					c0-1.22,0.07-2.1,0.21-2.65l26.35-126.64l70.69-9.7l-13.59,66.25l-35.55,4.88l33.25,6.17l-1.25,5.15l35.55-4.88L704.78,1109.5z"
					/>
				<path d="M936.49,1283.95c-0.56,2.52-1.6,4.58-3.14,6.19c-1.54,1.61-3.28,2.54-5.23,2.81l-170.44,23.39l13.8-66.02l106.24-14.58
					l4.6-22.09l-95.16,13.06c-2.37,0.33-4.39-0.44-6.06-2.31c-1.67-1.86-2.51-4.28-2.51-7.25c0-1.22,0.07-2.1,0.21-2.65l23-110.21
					c0.56-2.52,1.57-4.62,3.03-6.31c1.46-1.68,3.17-2.66,5.12-2.93l170.65-23.42l-13.8,66.28l-141.58,19.43l33.04,6.2l-2.3,11.05
					l95.16-13.06c2.37-0.33,4.36,0.41,5.96,2.19c1.6,1.79,2.4,4.16,2.4,7.13c0,1.22-0.07,2.19-0.21,2.91L936.49,1283.95z"/>
				<path d="M1048.37,1126.73l-53.12,7.29l13.8-66.28l176.93-24.28l-13.59,66.25l-88.67,12.17l33.25,5.91l-29.91,143.35l-70.69,9.7
					L1048.37,1126.73z"/>
				<path d="M1347.43,1235.4l-177.13,24.31l45.8-220.39l177.13-24.31l-13.8,66.28l-141.58,19.43l33.04,6.2l-2.3,11.05l88.46-12.14
					l-8.99,43.9l-88.67,12.17l-4.6,22.09l106.24-14.58L1347.43,1235.4z"/>
				<path d="M1498.84,1214.62l17.36-83.26l-39.32,80.52l-8.78-93.81l-35.34,4.85l32.83,5.96l-19.24,92.94l-70.9,9.73l45.8-220.39
					l63.16-8.67c2.23-0.31,4.15,0.35,5.75,1.96c1.6,1.61,2.54,3.8,2.82,6.55l7.11,75.19l44.54-91.96l70.9-9.73l-46.01,220.42
					L1498.84,1214.62z"/>
				<path d="M1776.56,1168.65c-0.56,2.52-1.6,4.58-3.14,6.19c-1.54,1.61-3.28,2.54-5.23,2.81l-170.44,23.39l13.8-66.02l106.24-14.58
					l4.6-22.09l-95.16,13.06c-2.37,0.33-4.39-0.44-6.06-2.31c-1.67-1.86-2.51-4.28-2.51-7.25c0-1.22,0.07-2.1,0.21-2.65l23-110.21
					c0.56-2.52,1.57-4.62,3.03-6.31c1.46-1.68,3.17-2.66,5.12-2.93l170.65-23.42l-13.8,66.28l-141.58,19.43l33.04,6.2l-2.3,11.05
					l95.16-13.06c2.37-0.33,4.36,0.41,5.96,2.19c1.6,1.79,2.4,4.16,2.4,7.13c0,1.22-0.07,2.19-0.21,2.91L1776.56,1168.65z"/>
			</g>
		</g>
	</g>
	<g>
		<path d="M1106.76,684.09c-20.81,0-47.62-9.04-80.23-27.1c-47.64-26.38-102.49-69.52-154.44-121.48
			c-51.95-51.95-95.09-106.8-121.48-154.44c-30.46-55.01-35.27-93.54-14.28-114.52c20.98-20.99,59.51-16.18,114.52,14.28
			c47.64,26.38,102.49,69.52,154.44,121.48c51.95,51.95,95.1,106.8,121.48,154.44c30.46,55.01,35.27,93.54,14.28,114.52v0
			C1132.51,679.82,1121.05,684.09,1106.76,684.09z M770.87,287.51c-5.7,0-9.15,1.27-10.73,2.85c-4.73,4.74-6.66,26.38,19.93,74.4
			c24.9,44.97,66.04,97.15,115.83,146.95c49.79,49.79,101.98,90.93,146.95,115.83c48.02,26.59,69.66,24.67,74.4,19.93
			c4.73-4.73,6.66-26.38-19.93-74.4c-24.9-44.97-66.04-97.15-115.83-146.95c-49.79-49.79-101.98-90.93-146.95-115.83
			C802.54,292.57,782.25,287.51,770.87,287.51z"/>
	</g>
	<g>
		<path d="M988.63,713.75c-16.58,0-37.6-7.02-62.91-21.03c-36.45-20.19-78.37-53.15-118.03-92.81
			c-39.66-39.66-72.62-81.58-92.81-118.03c-24.09-43.49-27.5-74.35-10.15-91.7c17.35-17.35,48.2-13.94,91.69,10.15
			c36.45,20.19,78.37,53.15,118.03,92.81c39.66,39.66,72.62,81.58,92.81,118.03c24.09,43.49,27.5,74.35,10.15,91.7
			C1010.16,710.12,1000.54,713.75,988.63,713.75z M733.53,413.07c-2.99,0-4.57,0.53-4.98,0.93c-1.35,1.35-4.04,15.75,15.8,51.57
			C763.05,499.35,794,538.6,831.5,576.1c37.5,37.5,76.75,68.45,110.53,87.16c35.82,19.84,50.22,17.15,51.57,15.8
			c1.35-1.35,4.04-15.75-15.8-51.57c-18.71-33.78-49.66-73.03-87.16-110.53c-37.5-37.5-76.75-68.45-110.53-87.16
			C755.06,415.92,740.49,413.07,733.53,413.07z"/>
	</g>
	<g>
		<path d="M885.85,740.84c-39.47,0-99.97-48.94-135.06-84.03c-29.14-29.14-53.39-59.99-68.27-86.87
			c-18.63-33.64-20.85-57.92-6.61-72.16c33.21-33.21,115.59,31.44,159.03,74.88c43.44,43.44,108.09,125.82,74.88,159.03l0,0
			C903.44,738.07,895.24,740.84,885.85,740.84z M700.35,522.23c0.05,4.69,2.74,16.83,15.25,37.68c13.64,22.73,34.59,48.69,59,73.1
			c24.41,24.41,50.37,45.36,73.1,59c20.85,12.51,32.98,15.2,37.68,15.25c-0.05-4.69-2.74-16.83-15.25-37.68
			c-13.64-22.73-34.59-48.69-59-73.1c-24.41-24.41-50.37-45.36-73.1-59C717.18,524.97,705.04,522.28,700.35,522.23z"/>
	</g>
	<g>
		<ellipse transform="matrix(0.7071 -0.7071 0.7071 0.7071 -278.0034 710.8784)" cx="719.1" cy="691.02" rx="23.61" ry="82.2"/>
	</g>
	<g>
		<ellipse transform="matrix(0.7071 -0.7071 0.7071 0.7071 -323.9776 690.3599)" cx="671.35" cy="736.26" rx="13.15" ry="45.79"/>
	</g>
	<g>
		<path d="M1125.11,0C974.5,0,861.24,109.65,861.24,269.89s113.26,269.89,263.87,269.89s263.87-109.65,263.87-269.89
			S1275.72,0,1125.11,0z M1125.28,147.12c-63.23,0-114.67,51.44-114.67,114.67h-58.34c0-95.4,77.61-173.01,173.01-173.01V147.12z"/>
	</g>
</g>
</svg>
